{"title":"Dr. Acula - Party 2.0 Music Video [360p] [2012] MP4 -BSAA.mp4","uid":7046206,"size":11856712,"categoryP":"video","categoryS":"music_videos","magnet":"?xt=urn:btih:0fe4c72dbf3becf5f88a6f6bd87ce90c3294f4af&amp;dn=Dr.+Acula+-+Party+2.0+Music+Video+%5B360p%5D+%5B2012%5D+MP4+-BSAA.mp4&amp;tr=udp%3A%2F%2Ftracker.openbittorrent.com%3A80&amp;tr=udp%3A%2F%2Fopen.demonii.com%3A1337&amp;tr=udp%3A%2F%2Ftracker.coppersurfer.tk%3A6969&amp;tr=udp%3A%2F%2Fexodus.desync.com%3A6969","seeders":1,"leechers":0,"uploader":"xBSAACHRIS434x","files":1,"time":1329751221,"description":"PLEASE SEED!!!!\n\n\n\n\n &lt;a href=&quot;\nhttp://en.wikipedia.org/wiki/Dr._Acula_(band)&quot; rel=&quot;nofollow&quot; target=&quot;_NEW&quot;&gt;\nhttp://en.wikipedia.org/wiki/Dr._Acula_(band)&lt;/a&gt;\n\n\n\n\n\nFormat                                   : MPEG-4\nFormat profile                           : Base Media / Version 2\nCodec ID                                 : mp42\nFile size                                : 11.3 MiB\nDuration                                 : 2mn 8s\nOverall bit rate mode                    : Variable\nOverall bit rate                         : 736 Kbps\n\n\nVideo\nID                                       : 1\nFormat                                   : AVC\nFormat/Info                              : Advanced Video Codec\nFormat profile                           : &lt;a class=&quot;__cf_email__&quot; href=&quot;/cdn-cgi/l/email-protection&quot; data-cfemail=&quot;90d2f1e3f5fcf9fef5d0dca3bea0&quot;&gt;[email&amp;#160;protected]&lt;/a&gt;&lt;script cf-hash='f9e31' type=&quot;text/javascript&quot;&gt;\n/* &lt;![CDATA[ */!function(){try{var t=&quot;currentScript&quot;in document?document.currentScript:function(){for(var t=document.getElementsByTagName(&quot;script&quot;),e=t.length;e--;)if(t[e].getAttribute(&quot;cf-hash&quot;))return t[e]}();if(t&amp;&amp;t.previousSibling){var e,r,n,i,c=t.previousSibling,a=c.getAttribute(&quot;data-cfemail&quot;);if(a){for(e=&quot;&quot;,r=parseInt(a.substr(0,2),16),n=2;a.length-n;n+=2)i=parseInt(a.substr(n,2),16)^r,e+=String.fromCharCode(i);e=document.createTextNode(e),c.parentNode.replaceChild(e,c)}}}catch(u){}}();/* ]]&gt; */&lt;/script&gt;\nFormat settings, CABAC                   : No\nFormat settings, ReFrames                : 1 frame\nCodec ID                                 : avc1\nCodec ID/Info                            : Advanced Video Coding\nDuration                                 : 2mn 8s\nBit rate                                 : 638 Kbps\nMaximum bit rate                         : 1 061 Kbps\nWidth                                    : 640 pixels\nHeight                                   : 360 pixels\nDisplay aspect ratio                     : 16:9\nFrame rate mode                          : Constant\nFrame rate                               : 23.976 fps\nColor space                              : YUV\nChroma subsampling                       : 4:2:0\nBit depth                                : 8 bits\nScan type                                : Progressive\nBits/(Pixel*Frame)                       : 0.115\nStream size                              : 9.79 MiB (87%)\n\n\nAudio\nID                                       : 2\nFormat                                   : AAC\nFormat/Info                              : Advanced Audio Codec\nFormat profile                           : LC\nCodec ID                                 : 40\nDuration                                 : 2mn 8s\nBit rate mode                            : Variable\nBit rate                                 : 96.0 Kbps\nMaximum bit rate                         : 115 Kbps\nChannel(s)                               : 2 channels\nChannel positions                        : Front: L R\nSampling rate                            : 44.1 KHz\nCompression mode                         : Lossy\nStream size                              : 1.48 MiB (13%)","torrent":{"xt":"urn:btih:0fe4c72dbf3becf5f88a6f6bd87ce90c3294f4af","amp;dn":"Dr.+Acula+-+Party+2.0+Music+Video+%5B360p%5D+%5B2012%5D+MP4+-BSAA.mp4","amp;tr":["udp%3A%2F%2Ftracker.openbittorrent.com%3A80","udp%3A%2F%2Fopen.demonii.com%3A1337","udp%3A%2F%2Ftracker.coppersurfer.tk%3A6969","udp%3A%2F%2Fexodus.desync.com%3A6969"],"infoHash":"0fe4c72dbf3becf5f88a6f6bd87ce90c3294f4af","infoHashBuffer":{"type":"Buffer","data":[15,228,199,45,191,59,236,245,248,138,111,107,216,124,233,12,50,148,244,175]},"announce":[],"urlList":[]}}